<svg class="svg-icon" style="width: 1em; height: 1em;vertical-align: middle;;overflow: hidden;" viewBox="0 0 1024 1024" version="1.1" xmlns="http://www.w3.org/2000/svg"><path d="M699.0336 761.9072c-7.424 0-14.7968-3.2256-19.8656-9.4208-8.9088-10.9568-7.2704-27.0848 3.6864-35.9936 54.1184-43.9808 85.1456-109.2096 85.1456-178.8416s-31.0272-134.8096-85.0944-178.8416c-10.9568-8.9088-12.6464-25.0368-3.6864-35.9936s25.0368-12.6464 35.9936-3.6864c66.0992 53.76 103.9872 133.4272 103.9872 218.5728s-37.888 164.7616-103.9872 218.5728c-4.7616 3.84-10.4448 5.7344-16.128 5.7344z"  /><path d="M795.904 881.1008c-7.424 0-14.7968-3.2256-19.8656-9.4208-8.9088-10.9568-7.2704-27.0848 3.6864-35.9936 90.1632-73.3184 141.8752-181.9648 141.8752-298.0352s-51.712-224.7168-141.8752-298.0352c-10.9568-8.9088-12.6464-25.0368-3.6864-35.9936s25.0368-12.6464 35.9936-3.6864c102.144 83.0976 160.768 206.2336 160.768 337.7664s-58.5728 254.6688-160.768 337.7664c-4.7616 3.84-10.4448 5.7344-16.128 5.7344z"  /><path d="M602.2144 642.6624c-7.424 0-14.7968-3.2256-19.8656-9.4208-8.9088-10.9568-7.2704-27.0848 3.6864-35.9936 18.0224-14.6944 28.3648-36.4032 28.3648-59.5968s-10.3424-44.9536-28.3648-59.5968c-10.9568-8.9088-12.6464-25.0368-3.6864-35.9936s25.0368-12.6464 35.9936-3.6864c30.0544 24.4224 47.2576 60.6208 47.2576 99.328s-17.2544 74.9056-47.2576 99.328c-4.7616 3.84-10.4448 5.7344-16.128 5.7344z"  /><path d="M417.28 164.1984c-12.6464 0-25.2928 5.3248-37.6832 15.8208l-209.8176 178.3296-92.9792 0c-42.3424 0-76.8 34.4576-76.8 76.8l0 204.8c0 42.3424 34.4576 76.8 76.8 76.8l92.9792 0 209.8176 178.3296c12.3392 10.496 25.0368 15.8208 37.6832 15.8208 0 0 0 0 0 0 13.9264 0 26.4192-6.7584 34.304-18.5344 6.0928-9.1648 9.216-20.8896 9.216-34.816l0-640c0-36.864-21.8624-53.4016-43.52-53.4016zM51.2 640l0-204.8c0-14.1312 11.4688-25.6 25.6-25.6l76.8 0 0 256-76.8 0c-14.1312 0-25.6-11.4688-25.6-25.6zM409.6 853.4528l-204.8-174.08 0-283.5456 204.8-174.08 0 631.7056z"  /></svg>
